<svg width="16" height="18" viewBox="0 0 16 18" fill="none" xmlns="http://www.w3.org/2000/svg">
<path d="M8.00036 0C6.01455 0 4.38454 1.56046 4.38454 3.46154V4.15385H0.813559L0.768723 4.80323L0.0455595 17.2648L0 18H16L15.9552 17.2641L15.232 4.80254L15.1864 4.15385H11.6162V3.46154C11.6162 1.56046 9.98617 0 8.00036 0ZM8.00036 1.38462C8.57575 1.38462 9.12757 1.60343 9.53442 1.99293C9.94128 2.38243 10.1699 2.9107 10.1699 3.46154V4.15385H5.83087V3.46154C5.83087 2.9107 6.05944 2.38243 6.4663 1.99293C6.87316 1.60343 7.42498 1.38462 8.00036 1.38462ZM2.16949 5.53846H4.38454V7.61539H5.83087V5.53846H10.1699V7.61539H11.6162V5.53846H13.8312L14.464 16.6154H1.53745L2.16949 5.53846Z" fill="#4E2825"/>
</svg>
