<svg width="235" height="234" viewBox="0 0 235 234" fill="none" xmlns="http://www.w3.org/2000/svg">
<path fill-rule="evenodd" clip-rule="evenodd" d="M16.5192 16.4489C0 32.8978 0 59.3717 0 112.32V121.68C0 174.628 0 201.102 16.5192 217.551C33.0384 234 59.6254 234 112.8 234H122.2C175.375 234 201.961 234 218.481 217.551C235 201.102 235 174.628 235 121.68V112.32C235 59.3717 235 32.8978 218.481 16.4489C201.961 0 175.375 0 122.2 0H112.8C59.6254 0 33.0384 0 16.5192 16.4489ZM39.6568 71.1755C40.9298 132.015 71.4797 168.578 125.04 168.578H128.076V133.77C147.757 135.72 162.64 150.053 168.613 168.578H196.421C188.784 140.888 168.71 125.58 156.177 119.73C168.71 112.515 186.335 94.9655 190.545 71.1755H165.282C159.799 90.4805 143.547 108.03 128.076 109.688V71.1755H102.812V138.645C87.1458 134.745 67.3672 115.83 66.4859 71.1755H39.6568Z" fill="#8B8635"/>
</svg>
