<svg width="235" height="234" viewBox="0 0 235 234" fill="none" xmlns="http://www.w3.org/2000/svg">
<path fill-rule="evenodd" clip-rule="evenodd" d="M235 117C235 181.617 182.393 234 117.5 234C52.6065 234 0 181.617 0 117C0 52.3827 52.6065 0 117.5 0C182.393 0 235 52.3827 235 117ZM121.711 86.3746C110.282 91.1079 87.4409 100.905 53.1873 115.765C47.625 117.967 44.7113 120.122 44.446 122.229C43.9977 125.79 48.4757 127.192 54.5736 129.101C55.403 129.361 56.2625 129.63 57.1436 129.915C63.1429 131.857 71.2131 134.129 75.4084 134.219C79.214 134.301 83.4615 132.738 88.1509 129.532C120.155 108.02 136.676 97.1471 137.713 96.9127C138.445 96.7474 139.459 96.5394 140.146 97.1475C140.833 97.7556 140.765 98.9071 140.693 99.216C140.249 101.099 122.671 117.371 113.575 125.792C110.739 128.418 108.727 130.28 108.316 130.705C107.395 131.658 106.456 132.559 105.554 133.425C99.9804 138.775 95.8008 142.787 105.785 149.339C110.584 152.487 114.423 155.091 118.254 157.688C122.437 160.525 126.609 163.354 132.007 166.878C133.383 167.775 134.696 168.708 135.976 169.616C140.844 173.072 145.218 176.177 150.621 175.682C153.761 175.394 157.004 172.454 158.651 163.686C162.544 142.966 170.195 98.0699 171.963 79.5695C172.118 77.9486 171.923 75.8742 171.767 74.9636C171.61 74.053 171.283 72.7555 170.095 71.7951C168.687 70.6576 166.514 70.4178 165.541 70.4348C161.122 70.5123 154.342 72.86 121.711 86.3746Z" fill="#8B8635"/>
</svg>
