<svg width="366" height="311" viewBox="0 0 366 311" fill="none" xmlns="http://www.w3.org/2000/svg">
<g clip-path="url(#clip0_96_11)">
<path d="M129.68 71.65C134.91 76.35 138.91 81.76 141.69 87.87C144.47 93.98 145.86 100.5 145.86 107.42C145.86 113.95 144.6 120.15 142.09 125.99C139.58 131.83 135.96 137.02 131.26 141.53C126.16 146.43 120.2 150.14 113.37 152.65C106.54 155.17 99.04 156.42 90.87 156.42C77.93 156.42 66.27 153.77 55.88 148.48C45.49 143.19 36.64 135.38 29.32 125.05L47.85 112.01C53.08 119.33 59.22 124.78 66.28 128.38C73.34 131.97 81.54 133.77 90.88 133.77C96.43 133.77 101.25 132.99 105.34 131.42C109.43 129.85 112.79 127.83 115.44 125.34C118.09 122.85 120.05 120.03 121.32 116.86C122.59 113.69 123.23 110.54 123.23 107.4C123.23 103.74 122.49 100.29 121.02 97.06C119.55 93.83 117.41 90.97 114.6 88.48C111.07 85.34 106.73 82.96 101.56 81.32C96.39 79.68 90.55 78.87 84.01 78.87C60.68 78.87 43.79 87.95 33.33 106.12C31.76 108.86 30.44 111.59 29.36 114.3C28.28 117.01 27.4 119.56 26.71 121.95C26.02 124.34 25.5 126.51 25.14 128.47C24.78 130.43 24.5 132 24.31 133.17V152.68H0V8.92001L94.29 9.02001H95.86C97.95 9.02001 100.5 8.91001 103.51 8.68001C106.52 8.45001 109.73 7.99001 113.16 7.31001C116.59 6.63001 119.83 5.68001 122.86 4.47001C125.89 3.26001 128.37 1.77001 130.26 0.0100098L145.84 16.57C143.42 18.86 140.71 20.83 137.7 22.5C134.69 24.17 131.59 25.55 128.39 26.67C125.19 27.79 121.97 28.66 118.74 29.32C115.51 29.98 112.45 30.48 109.58 30.84C106.71 31.2 104.11 31.43 101.79 31.53C99.47 31.63 97.56 31.68 96.06 31.68H24.31V80.3C27.32 77.03 30.75 73.96 34.6 71.09C38.45 68.22 42.83 65.67 47.73 63.44C52.63 61.21 58.09 59.47 64.1 58.2C70.11 56.93 76.74 56.29 84 56.29C93.34 56.29 101.89 57.58 109.63 60.16C117.37 62.74 124.05 66.58 129.67 71.68L129.68 71.65Z" fill="#ED553B"/>
<path d="M231.36 97.23C231.36 109.06 230.58 118.86 229.01 126.64C227.44 134.42 225.14 140.61 222.1 145.21C219.06 149.82 215.27 153.07 210.73 154.96C206.19 156.85 200.94 157.8 195 157.8C189.64 157.8 184.92 157.02 180.84 155.45C176.76 153.88 173.24 151.82 170.3 149.27C167.36 146.72 164.91 143.88 162.95 140.74C160.99 137.6 159.42 134.47 158.25 131.33C157.08 128.19 156.26 125.22 155.8 122.41C155.34 119.6 155.11 117.28 155.11 115.45H178.44C178.44 122.77 179.89 128.31 182.8 132.06C185.71 135.81 189.45 137.7 194.02 137.7C196.63 137.7 198.76 136.87 200.39 135.2C202.02 133.53 203.31 131.13 204.26 128C205.21 124.87 205.84 121.09 206.17 116.68C206.5 112.27 206.66 107.32 206.66 101.83V101.63C204.44 101.96 202.33 102.22 200.34 102.41C198.35 102.6 196.44 102.7 194.61 102.7C186.9 102.7 180.46 101.36 175.3 98.68C170.14 96 165.99 92.46 162.85 88.05C159.71 83.64 157.41 78.64 155.94 73.05C154.47 67.46 153.57 61.73 153.24 55.85C153.11 53.63 153.04 51.37 153.04 49.09C153.04 37.07 154.77 23.7 158.23 9H183.42C180.22 22.79 178.52 35.07 178.32 45.85V47.32C178.32 51.37 178.58 55.5 179.1 59.72C179.62 63.94 180.68 67.76 182.29 71.19C183.9 74.62 186.11 77.4 188.96 79.52C191.81 81.64 195.45 82.71 199.89 82.71C201.79 82.71 204.04 82.45 206.65 81.93V9.02H231.35V97.24L231.36 97.23Z" fill="#ED553B"/>
<path d="M315.62 66.26C321.24 66.72 326.25 68.3 330.67 71.01C335.09 73.72 338.97 77.15 342.33 81.3C345.69 85.45 348.62 90.09 351.1 95.22C353.58 100.35 355.67 105.56 357.37 110.85C361.42 123.27 364.13 137.22 365.51 152.7H339.14C338.09 140.48 336.23 129.57 333.55 119.96C332.44 115.91 331.08 111.92 329.48 108C327.88 104.08 325.97 100.58 323.75 97.51C321.53 94.44 319 91.97 316.15 90.11C313.3 88.25 310.09 87.32 306.5 87.32C302.45 87.32 298.85 88.25 295.72 90.11C292.59 91.97 289.87 94.44 287.58 97.51C285.29 100.58 283.35 104.08 281.75 108C280.15 111.92 278.83 115.91 277.78 119.96C275.3 129.57 273.86 140.48 273.47 152.7H248.87V9.02002H275.14V84.69L275.43 84.1C275.56 83.84 275.76 83.54 276.02 83.22L324.73 9.02002H354.14L315.62 66.26Z" fill="#ED553B"/>
<path d="M75.87 162.14V184.78H50.78V305.83H25V184.78H0V162.14H75.87Z" fill="#ED553B"/>
<path d="M162.94 250.35C162.94 262.18 162.16 271.98 160.59 279.76C159.02 287.54 156.72 293.73 153.68 298.33C150.64 302.93 146.85 306.19 142.31 308.08C137.77 309.97 132.52 310.92 126.58 310.92C121.22 310.92 116.5 310.14 112.42 308.57C108.34 307 104.82 304.94 101.88 302.39C98.9401 299.84 96.4901 297 94.5301 293.86C92.5701 290.72 91.0001 287.59 89.8301 284.45C88.6601 281.31 87.8401 278.34 87.3801 275.53C86.9201 272.72 86.6901 270.4 86.6901 268.57H110.02C110.02 275.89 111.47 281.43 114.38 285.18C117.29 288.94 121.03 290.82 125.6 290.82C128.21 290.82 130.34 289.99 131.97 288.32C133.6 286.65 134.89 284.25 135.84 281.12C136.79 277.99 137.42 274.21 137.75 269.8C138.08 265.39 138.24 260.44 138.24 254.95V254.75C136.02 255.08 133.91 255.34 131.92 255.53C129.93 255.72 128.02 255.82 126.19 255.82C118.48 255.82 112.04 254.48 106.88 251.8C101.72 249.12 97.5701 245.58 94.4301 241.17C91.2901 236.76 88.9901 231.76 87.5201 226.17C86.0501 220.58 85.1501 214.85 84.8201 208.97C84.6901 206.75 84.6201 204.49 84.6201 202.21C84.6201 190.19 86.3501 176.82 89.8101 162.12H115C111.8 175.91 110.1 188.19 109.9 198.97V200.44C109.9 204.49 110.16 208.62 110.68 212.84C111.2 217.06 112.26 220.88 113.87 224.31C115.47 227.74 117.69 230.52 120.54 232.64C123.39 234.76 127.03 235.83 131.47 235.83C133.37 235.83 135.62 235.57 138.23 235.05V162.12H162.93V250.34L162.94 250.35Z" fill="#ED553B"/>
<path d="M245.19 219.38C250.81 219.84 255.82 221.42 260.24 224.13C264.66 226.84 268.54 230.27 271.9 234.42C275.27 238.57 278.19 243.21 280.67 248.34C283.15 253.47 285.24 258.68 286.94 263.97C290.99 276.39 293.7 290.34 295.08 305.82H268.71C267.66 293.6 265.8 282.69 263.12 273.08C262.01 269.03 260.65 265.04 259.05 261.12C257.45 257.2 255.54 253.7 253.32 250.63C251.1 247.56 248.57 245.09 245.72 243.23C242.87 241.37 239.66 240.44 236.07 240.44C232.02 240.44 228.42 241.37 225.29 243.23C222.16 245.09 219.44 247.56 217.15 250.63C214.86 253.7 212.92 257.2 211.32 261.12C209.72 265.04 208.4 269.03 207.35 273.08C204.87 282.69 203.43 293.6 203.04 305.82H178.44V162.13H204.71V237.8L205 237.21C205.13 236.95 205.33 236.65 205.59 236.33L254.3 162.13H283.71L245.19 219.37V219.38Z" fill="#ED553B"/>
</g>
<defs>
<clipPath id="clip0_96_11">
<rect width="365.51" height="310.93" fill="white"/>
</clipPath>
</defs>
</svg>
